<?xml version="1.0" encoding="UTF-8"?> <svg xmlns="http://www.w3.org/2000/svg" id="Layer_1" version="1.1" viewBox="0 0 126.7 43"><defs><style> .st0 { fill: #fff; } </style></defs><g><path class="st0" d="M63.85,23.38c0,.55-.12,1.03-.37,1.45-.25.42-.58.76-.99.99-.42.25-.9.37-1.44.37-.5,0-.95-.12-1.35-.37-.42-.23-.74-.57-.96-.99-.23-.42-.34-.9-.34-1.45v-10.47h-4.97v10.69c0,1.32.32,2.51.98,3.53.65,1.02,1.55,1.83,2.7,2.41,1.15.6,2.46.88,3.93.88,1.49,0,2.8-.28,3.94-.88,1.15-.58,2.03-1.39,2.7-2.41.65-1.03.98-2.21.98-3.53v-10.69h-4.81v10.47Z"></path><polygon class="st0" points="61.05 30.42 61.05 30.42 61.04 30.42 61.05 30.42"></polygon><polygon class="st0" points="75.1 12.91 72.77 12.91 72.77 30.28 77.68 30.28 77.68 23.95 84.09 23.95 84.09 20.01 77.68 20.01 77.68 17.15 85.05 17.15 85.05 12.91 77.68 12.91 75.1 12.91"></polygon><path class="st0" d="M97.22,20.49l-4.66-7.58h-4.29v17.37h4.73v-4.64c0-1.6-.04-2.99-.1-4.15-.01-.19-.04-.38-.05-.57l3.47,5.48h1.64l3.57-5.52c-.02.25-.05.49-.06.74-.07,1.19-.11,2.52-.11,4.02v4.64h4.74V12.91h-4.13l-4.73,7.58Z"></path><path class="st0" d="M126.65,20.97c-.02-.37-.06-.64-.06-.83h-8.39v3.57h3.88c-.03.28-.09.56-.21.81-.17.35-.39.66-.68.92-.29.26-.63.46-1.03.61-.4.15-.82.21-1.28.21-.66,0-1.28-.12-1.85-.35-.57-.25-1.07-.58-1.48-1.01-.41-.44-.74-.94-.96-1.54-.22-.58-.34-1.2-.34-1.89s.1-1.33.34-1.92c.22-.58.53-1.09.92-1.51.39-.42.87-.74,1.41-.99.53-.24,1.13-.35,1.77-.35.58,0,1.11.07,1.58.21.46.16.92.36,1.31.6.42.25.79.55,1.15.9l2.93-3.13c-.5-.53-1.09-1.01-1.79-1.43-.69-.44-1.47-.77-2.33-1.02-.87-.25-1.79-.37-2.78-.37-1.41,0-2.71.21-3.87.67-1.17.44-2.18,1.08-3.04,1.89-.85.81-1.51,1.76-1.97,2.86-.45,1.11-.68,2.32-.68,3.61s.21,2.49.62,3.6c.41,1.11,1.02,2.06,1.82,2.88.8.81,1.77,1.44,2.91,1.89,1.14.44,2.42.67,3.86.67h-.01c1.22-.01,2.32-.2,3.33-.58,1.01-.39,1.88-.92,2.63-1.59.74-.68,1.32-1.49,1.74-2.43.41-.95.61-1.97.61-3.08v-.77c0-.36-.03-.73-.05-1.11Z"></path></g><g><path class="st0" d="M17.76,23.44c1.52.59,3.3-2.01,4.11-4.16,0,0-2.3,1.67-3.31,2.45-1.04.8-1.79,1.32-.8,1.71Z"></path><path class="st0" d="M25.05,31.01c-.11-.11-.23-.2-.38-.26-.14-.06-.3-.09-.47-.09s-.33.03-.47.09c-.14.06-.27.15-.38.26-.11.11-.19.24-.25.39-.06.15-.09.32-.09.5s.03.35.09.5c.06.15.14.28.25.39.11.11.23.2.38.26.14.06.3.09.47.09s.33-.03.47-.09c.14-.06.27-.15.38-.26.11-.11.19-.24.25-.39.06-.15.09-.32.09-.5s-.03-.35-.09-.5c-.06-.15-.14-.28-.25-.39Z"></path><path class="st0" d="M12.12,31.87c-.04-.11-.07-.21-.11-.31-.02-.06-.04-.12-.05-.19-.02.06-.04.13-.06.19-.03.1-.07.2-.11.31-.04.11-.09.24-.15.4l-.15.41h.92l-.15-.41c-.06-.15-.1-.29-.14-.4Z"></path><path class="st0" d="M38.69,0H4.31C1.93,0,0,1.94,0,4.31v34.37c0,2.38,1.94,4.31,4.31,4.31h34.37c2.38,0,4.31-1.94,4.31-4.31V4.31c0-2.38-1.94-4.31-4.31-4.31ZM13.1,34.56l-.29-.78h-1.73l-.29.78h-1.58l2.11-5.26h1.28l2.1,5.26h-1.61ZM20.28,34.56h-1.46l-1.96-2.71s0,.05,0,.07c.01.12.02.23.03.34,0,.11.01.24.02.38,0,.14,0,.3,0,.48v1.43h-1.56v-5.26h1.45l2.02,2.79s0-.05,0-.08c-.02-.15-.03-.29-.05-.42-.01-.13-.02-.25-.03-.38,0-.13-.01-.26-.01-.41v-1.5h1.56v5.26ZM26.83,32.99c-.14.34-.33.63-.59.87-.25.25-.55.44-.9.57s-.72.2-1.13.2-.8-.07-1.14-.2c-.35-.14-.65-.33-.9-.57-.26-.25-.45-.54-.59-.87-.14-.34-.21-.7-.21-1.1s.07-.77.21-1.1c.14-.33.33-.62.59-.87.26-.24.56-.44.9-.57.35-.14.72-.2,1.13-.2s.79.07,1.14.2c.34.14.64.33.9.57.26.25.45.53.59.87.14.33.21.7.21,1.09s-.07.77-.21,1.1ZM31.83,33.85c-.19.26-.45.46-.78.59-.33.13-.69.2-1.09.2s-.74-.04-1.05-.13c-.3-.09-.57-.21-.8-.37-.23-.16-.43-.35-.61-.56l.94-1.05c.25.32.51.53.78.63.27.1.53.15.77.15.1,0,.18,0,.26-.03.07-.02.13-.05.17-.09.04-.04.06-.1.06-.17,0-.07-.02-.12-.06-.17-.04-.05-.1-.08-.17-.12-.07-.03-.15-.06-.23-.08-.08-.02-.16-.04-.24-.06-.08-.02-.15-.03-.21-.05-.3-.07-.56-.16-.79-.26-.22-.1-.41-.22-.56-.36-.15-.14-.26-.3-.33-.48-.07-.18-.11-.38-.11-.61,0-.26.06-.49.18-.7.12-.21.28-.39.47-.54.2-.15.42-.27.68-.35.25-.08.51-.12.79-.12.39,0,.73.04.99.11.27.07.49.18.67.31.18.14.34.29.47.47l-.95.91c-.11-.1-.23-.19-.35-.26-.12-.07-.24-.12-.37-.15-.13-.03-.25-.05-.38-.05-.12,0-.21,0-.29.03-.08.02-.14.05-.19.08-.05.04-.07.09-.07.15s.03.12.09.16c.06.04.13.08.22.11.09.03.18.05.26.07.09.02.16.03.22.04.28.05.53.12.76.21.23.09.43.2.6.33.17.13.31.3.4.5.09.2.14.43.14.7,0,.39-.1.71-.29.97ZM24.47,24.26c-.73-.19,1.71-2.92,2.72-2.66,3.49.9,6.11-.72,6.05-4.43-.02-1.37-.36-3.86-1.67-4.58-1.57-.86-3.97,1.23-6.14,3.47-.94,2.8-3.1,5.63-4.9,7.13-.97.81-2.59,1.94-3.95,1.79-1.64-.18-1.45-1.3-.63-2.41,1.04-1.42,2.66-2.23,4.11-3.16.8-.51,1.51-1.11,2.18-1.74.72-1.9,1.07-4.21-.72-5.24-1.87-1.08-5.69,2.78-6.96,4.27-1.21,2.37-2.47,4.71-3.77,7.02-.42.75-3.64,2.74-2.71,1.08,1.28-2.27,2.52-4.56,3.7-6.88,0-.02.02-.05.04-.07.37-.73.74-1.46,1.1-2.2.38-.77,1.97-3.44,1.58-3.9-.57-.69-3.92,2.07-4.46,2.57-1.13,1.07-3.54,1.58-1.57-.27,2.72-2.56,5.73-4.38,9.34-5.4.36-.1.55.16.4.49-.67,1.48-1.37,2.95-2.08,4.41,1.05-.83,2.14-1.62,3.19-2.39,2.49-1.8,5.26-3.14,6.4.88.18.64.22,1.33.15,2.05.19-.17.38-.35.58-.52,1.95-1.64,6.63-6.11,8.86-2.72,4.46,6.76-3.99,15.16-10.83,13.4Z"></path></g></svg> 